<svg width="455" height="105" viewBox="0 0 455 105" fill="none" xmlns="http://www.w3.org/2000/svg">
<g clip-path="url(#clip0)">
<path d="M113.528 78.2311V8.71533H154.925V17.4307H122.1V38.8043H151.579V47.5197H122.1V69.3082H157.225V78.0236H113.528V78.2311Z" fill="#E43225"/>
<path d="M200.711 78.2311L186.494 59.7628L172.277 78.2311H162.242L181.686 53.5375L161.196 28.0138H172.486L186.494 47.1047L200.711 28.0138H211.792L192.348 53.5375L210.747 78.2311H200.711Z" fill="#E43225"/>
<path d="M224.546 70.7609V105H215.974V53.745C215.974 40.6719 226.01 26.7687 241.69 26.7687C257.58 26.7687 269.497 36.7292 269.497 53.1225C269.497 69.1007 257.371 80.0988 243.572 80.0988C236.882 80.0988 227.891 77.1937 224.546 70.7609V70.7609ZM260.507 53.1225C260.507 41.917 253.19 35.2766 240.227 35.8992C233.955 36.1067 224.337 40.6719 225.173 56.6501C225.382 61.8379 230.818 71.5909 242.736 71.5909C252.98 71.5909 260.507 65.7806 260.507 53.1225V53.1225Z" fill="#E43225"/>
<path d="M276.814 78.2312V28.0138H285.386V33.409C289.568 28.6363 296.049 26.9763 302.948 26.9763V36.1067C301.903 35.8992 291.658 34.6541 285.386 47.9347V78.4387H276.814V78.2312Z" fill="#E43225"/>
<path d="M305.249 53.1225C305.249 38.5968 315.703 26.7687 330.129 26.7687C348.109 26.7687 354.8 38.5968 354.8 53.745V57.8952H314.657C315.285 67.4407 323.857 72.4209 331.802 72.2134C337.656 72.0059 341.628 70.3458 345.81 66.1956L351.455 72.0059C346.228 76.9861 339.537 80.3063 331.383 80.3063C316.121 80.0988 305.249 68.8932 305.249 53.1225V53.1225ZM329.502 35.2767C321.348 35.2767 315.076 42.332 314.657 50.0098H345.81C345.81 42.5395 340.374 35.2767 329.502 35.2767V35.2767Z" fill="#E43225"/>
<path d="M359.194 71.1757L365.467 65.573C365.258 65.573 368.603 68.8931 369.021 69.1006C370.484 70.3457 371.948 71.1758 373.83 71.5908C379.266 73.0434 389.092 72.6283 389.928 65.158C390.347 61.0078 387.21 58.7251 383.656 57.2726C379.056 55.6125 374.039 54.99 369.439 52.9149C364.212 50.6323 360.867 46.6896 360.867 40.8793C360.867 25.7311 382.611 23.241 392.437 30.2963C392.855 30.7113 397.664 35.069 397.455 35.069L391.183 40.0493C388.047 36.3141 385.12 34.4465 378.429 34.4465C375.084 34.4465 370.484 35.8991 369.648 39.4268C368.394 44.407 374.039 46.2746 377.802 47.3121C382.82 48.5572 388.256 49.3872 392.646 52.0848C398.71 55.82 400.173 63.9129 397.873 70.1382C395.364 76.986 387.838 79.6837 381.147 79.8912C373.202 80.3062 366.303 77.8161 360.658 72.2133C360.24 72.2133 359.194 71.1757 359.194 71.1757V71.1757Z" fill="#E43225"/>
<path d="M403.306 71.1757L409.578 65.573C409.369 65.573 412.714 68.8931 413.132 69.1006C414.596 70.3457 416.059 71.1758 417.941 71.5908C423.377 73.0434 433.203 72.6283 434.04 65.158C434.458 61.0078 431.322 58.7251 427.767 57.2726C423.168 55.6125 418.15 54.99 413.55 52.9149C408.323 50.6323 404.978 46.6896 404.978 40.8793C404.978 25.7311 426.722 23.241 436.549 30.2963C436.967 30.7113 441.776 35.069 441.566 35.069L435.294 40.0493C432.158 36.3141 429.231 34.4465 422.541 34.4465C419.195 34.4465 414.596 35.8991 413.759 39.4268C412.505 44.407 418.15 46.2746 421.913 47.3121C426.931 48.5572 432.367 49.3872 436.758 52.0848C442.821 55.82 444.284 63.9129 441.985 70.1382C439.476 76.986 431.949 79.6837 425.259 79.8912C417.314 80.3062 410.414 77.8161 404.769 72.2133C404.351 72.2133 403.306 71.1757 403.306 71.1757V71.1757Z" fill="#E43225"/>
<path d="M444.076 28.0138V22.6185H442.195V21.5809H447.213V22.6185H445.331V28.0138H444.076Z" fill="#E43225"/>
<path d="M453.484 28.0138V23.0335L451.602 28.0138H451.184L449.302 23.0335V28.0138H448.257V21.5809H449.929L451.602 25.9387L453.275 21.5809H454.948V28.0138H453.484Z" fill="#E43225"/>
<path d="M55.4049 78.2311L49.1327 61.6303H15.2625L8.99024 78.2311H0L27.1798 8.71533H37.0063L63.977 78.2311H55.4049ZM31.7794 18.6758L19.0259 53.1224H45.5784L31.7794 18.6758Z" fill="white"/>
<path d="M69.6216 78.2311V8.71533H78.4028V78.2311H69.6216Z" fill="white"/>
<path d="M91.5771 78.2311V29.0513H100.358V78.2311H91.5771Z" fill="white"/>
<path d="M108.719 13.0731C108.719 12.8656 108.719 12.8656 108.719 12.6581C108.719 12.4506 108.719 12.4506 108.719 12.2431C102.028 12.0356 96.5922 6.64032 96.3831 0C96.174 0 95.965 0 95.7559 0C95.5468 0 95.3377 0 95.1286 0C94.9196 6.64032 89.4836 12.0356 82.7932 12.2431C82.7932 12.4506 82.7932 12.4506 82.7932 12.6581C82.7932 12.8656 82.7932 12.8656 82.7932 13.0731C89.4836 13.2806 94.9196 18.6759 95.1286 25.3162C95.3377 25.3162 95.5468 25.3162 95.7559 25.3162C95.965 25.3162 96.174 25.3162 96.3831 25.3162C96.5922 18.6759 102.028 13.2806 108.719 13.0731Z" fill="white"/>
</g>
<defs>
<clipPath id="clip0">
<rect width="454.948" height="105" fill="white"/>
</clipPath>
</defs>
</svg>
