<svg width="40" height="42" viewBox="0 0 40 42" fill="none" xmlns="http://www.w3.org/2000/svg">
<path d="M25.5671 17.576L25.3901 17.752C25.6091 17.855 25.8151 17.998 25.9971 18.18L27.0191 19.202C27.4261 19.609 27.6541 20.161 27.6541 20.736C27.6541 21.311 27.4251 21.863 27.0181 22.269L26.1811 23.105C26.1151 23.171 25.9401 23.341 25.6881 23.544L26.1501 28.147C26.1991 28.637 26.0791 29.13 25.8111 29.543L24.0531 32.252C23.6521 32.87 22.9661 33.24 22.2341 33.24C22.2011 33.24 22.1681 33.239 22.1341 33.238C21.3651 33.202 20.6721 32.762 20.3141 32.08L14.9461 21.855L10.5231 25.878L11.0661 29.544C11.1511 30.116 11.0031 30.699 10.6561 31.162L10.2391 31.719C9.98809 32.054 9.65009 32.304 9.26709 32.448V37.763H40.0001V17.576H25.5671ZM29.5551 30.314L31.3571 27.193L33.1591 30.314H32.0801V33.066H30.6341V30.314H29.5551ZM37.4701 34.15V35.596H29.5501V34.15H37.4701ZM33.8611 30.314L35.6631 27.193L37.4651 30.314H36.3861V33.066H34.9401V30.314H33.8611Z" fill="#651FFF"/>
<path d="M15.563 18.365L22.235 31.073L23.993 28.364L23.397 22.41C23.839 22.27 24.399 21.822 24.649 21.573L25.487 20.736L24.465 19.714L23.628 20.551C23.455 20.724 23.16 20.936 23.011 21.011L22.162 17.402C22.577 17.315 22.963 17.115 23.265 16.813L24.21 15.869L23.188 14.847L22.243 15.791C22.105 15.929 21.952 15.98 21.832 15.999L20.949 12.248L25.196 8.00202C27.501 5.69802 27.403 4.09402 26.156 4.09302C25.434 4.09302 24.326 4.63002 23.076 5.88102L18.83 10.127L15.078 9.24402C15.096 9.12402 15.148 8.97102 15.286 8.83302L16.231 7.88902L15.209 6.86602L14.26 7.81002C13.958 8.11202 13.759 8.49802 13.671 8.91302L10.062 8.06402C10.138 7.91502 10.349 7.62102 10.522 7.44702L11.36 6.61002L10.338 5.58802L9.501 6.42502C9.252 6.67402 8.804 7.23502 8.663 7.67702L2.709 7.08102L0 8.83902L12.709 15.511L6.02 22.864L1.21 22.151L0.653 22.568L4.659 25.868L5.205 26.414L8.505 30.42L8.923 29.863L8.21 25.053L15.563 18.365Z" fill="#651FFF"/>
</svg>
