<svg width="37" height="38" viewBox="0 0 37 38" fill="none" xmlns="http://www.w3.org/2000/svg">
<path d="M29.398 0.368591H6.88362C4.48864 0.368591 2.54761 2.31054 2.54761 4.7046V33.2554C2.54761 35.6504 4.48955 37.5915 6.88362 37.5915H29.398C31.793 37.5915 33.734 35.6495 33.734 33.2554V4.70551C33.734 2.31054 31.793 0.368591 29.398 0.368591ZM12.6078 32.6572H6.90722V28.1305H12.6078V32.6572ZM12.6078 25.4468H6.90722V20.9202H12.6078V25.4468ZM12.6078 18.2374H6.90722V13.7107H12.6078V18.2374ZM20.9911 32.6572H15.2905V28.1305H20.9911V32.6572ZM20.9911 25.4468H15.2905V20.9202H20.9911V25.4468ZM20.9911 18.2374H15.2905V13.7107H20.9911V18.2374ZM29.3753 32.6572H23.6748V28.1305H29.3753V32.6572ZM29.3753 25.4468H23.6748V20.9202H29.3753V25.4468ZM29.3753 18.2374H23.6748V13.7107H29.3753V18.2374ZM29.3753 11.027H6.90722V5.3038H29.3753V11.027Z" fill="#651FFF"/>
<path d="M27.7819 6.573H25.0991V9.75873H27.7819V6.573Z" fill="#651FFF"/>
</svg>
