<svg width="40" height="42" viewBox="0 0 40 42" fill="none" xmlns="http://www.w3.org/2000/svg">
<g clip-path="url(#clip0)">
<path d="M40 31.452L27.666 20.318L28.325 36.921L32.59 34.923L35.838 41.856L38.982 40.384L35.734 33.451L40 31.452Z" fill="#651FFF"/>
<path d="M19.286 34.175C11.062 34.175 4.396 27.51 4.396 19.286C4.396 11.062 11.062 4.397 19.286 4.397C27.509 4.397 34.176 11.062 34.176 19.286C34.176 20.146 34.102 20.989 33.962 21.808L37.663 25.151C38.253 23.301 38.572 21.331 38.572 19.286C38.573 8.635 29.938 0 19.286 0C8.635 0 0 8.635 0 19.286C0 29.937 8.635 38.572 19.286 38.572C21.363 38.572 23.363 38.243 25.237 37.635L25.055 33.018C23.28 33.763 21.331 34.175 19.286 34.175Z" fill="#651FFF"/>
<path d="M25.0771 7.94597C24.3331 7.24997 23.5831 6.82997 22.8271 6.68597C22.0711 6.54197 21.2731 6.46997 20.4331 6.46997H15.9331V19.718H13.9531V22.093H15.9331V23.857H13.9531V26.233H15.9331V32.101H19.6051V26.233H24.4291V23.857H19.6051V22.093H20.3971C21.5491 22.093 22.4791 21.961 23.1871 21.697C23.8961 21.432 24.5251 21.013 25.0781 20.437C25.3901 20.101 25.6541 19.687 25.8691 19.195C26.0861 18.703 26.2601 18.175 26.3921 17.611C26.5231 17.048 26.6191 16.477 26.6791 15.901C26.7401 15.325 26.7691 14.785 26.7691 14.281C26.7691 12.745 26.6621 11.467 26.4451 10.447C26.2301 9.42797 25.7731 8.59397 25.0771 7.94597ZM23.1691 16.388C23.0731 16.976 22.9051 17.462 22.6651 17.846C22.4491 18.182 22.1661 18.434 21.8181 18.602C21.4701 18.77 20.9961 18.854 20.3961 18.854H19.6041V9.70997H20.3241C21.3321 9.70997 22.0521 9.92597 22.4841 10.358C22.7011 10.574 22.8621 10.85 22.9711 11.186C23.0781 11.522 23.1571 11.876 23.2051 12.248C23.2521 12.621 23.2811 12.998 23.2951 13.382C23.3071 13.766 23.3131 14.114 23.3131 14.426C23.3141 15.146 23.2651 15.8 23.1691 16.388Z" fill="#651FFF"/>
</g>
<defs>
<clipPath id="clip0">
<rect width="40" height="41.856" fill="white"/>
</clipPath>
</defs>
</svg>
