<svg width="40" height="40" viewBox="0 0 40 40" fill="none" xmlns="http://www.w3.org/2000/svg">
<g clip-path="url(#clip0)">
<path d="M10.3675 10.96L6.62747 5.69C5.80747 6.368 5.04647 7.115 4.35547 7.923L9.56647 11.747C9.82147 11.473 10.0885 11.21 10.3675 10.96Z" fill="#651FFF"/>
<path d="M17.1053 7.96199V1.50299C14.1123 1.71099 11.3143 2.63199 8.88232 4.09599L12.6243 9.36699C13.9813 8.62299 15.4953 8.13399 17.1053 7.96199Z" fill="#651FFF"/>
<path d="M27.541 12.078L29.317 10.303L24.797 5.78298L29.679 5.29098C26.922 3.16698 23.55 1.80298 19.874 1.51398V7.98098C22.928 8.35298 25.631 9.86498 27.541 12.078Z" fill="#651FFF"/>
<path d="M33.6801 6.10101L30.9641 6.37501L27.4531 6.72901L31.0261 10.303L23.9521 17.375L21.3641 14.787L17.3131 10.737L13.2631 14.787L2.2131 25.836L1.2251 26.824L1.2531 26.894L1.2601 26.91L1.2821 26.964L1.2961 26.997L1.3111 27.033L1.3311 27.084L1.3391 27.104L1.3661 27.17L1.3671 27.173L1.3961 27.242L1.4031 27.256L1.4261 27.311L1.4401 27.343L1.4561 27.381L1.4771 27.427L1.4871 27.45L1.5141 27.512L1.5171 27.517L1.5491 27.586L1.5531 27.597L1.5791 27.655L1.5911 27.681L1.6101 27.722L1.6311 27.766L1.6421 27.791L1.6711 27.85L1.6741 27.858L1.7071 27.926L1.7111 27.934L1.7391 27.993L1.7711 28.057L1.7721 28.061L1.7921 28.101L1.8061 28.129L1.8351 28.185L1.8391 28.196L1.8741 28.262L1.8771 28.267L1.9071 28.329L1.9181 28.35L1.9411 28.396L1.9741 28.459L1.9751 28.464L2.0031 28.516L2.0101 28.53L2.0461 28.596L2.0481 28.6L2.0811 28.663L2.0911 28.681L2.1171 28.729L2.1351 28.762L2.1531 28.793L2.1791 28.842L2.1891 28.859L2.2251 28.924V28.925L2.2621 28.99L2.2701 29.005L2.2971 29.054L2.3151 29.086L2.3341 29.119L2.3601 29.166L2.3711 29.184L2.4071 29.246L2.4081 29.249L2.4461 29.314C2.4831 29.379 2.5221 29.442 2.5611 29.507L2.5951 29.565L2.5991 29.57L2.6371 29.634L2.6431 29.644L2.6771 29.697L2.6921 29.722L2.7151 29.76L2.7411 29.8L2.7551 29.823L2.7901 29.878L2.7961 29.886L2.8361 29.948L2.8421 29.955L2.8781 30.011L2.9591 30.135L2.9941 30.186L3.0021 30.2L3.0431 30.262L3.0461 30.267L3.0841 30.324L3.0981 30.344L3.1271 30.386L3.1491 30.42L3.1681 30.448C3.2381 30.55 3.3101 30.652 3.3831 30.752L3.4161 30.798L3.4251 30.812L3.4691 30.873L3.5131 30.934L3.5231 30.946L3.5581 30.993C6.9301 35.523 12.3241 38.456 18.4041 38.456C28.6211 38.456 36.9021 30.174 36.9021 19.958C36.9021 19.214 36.8581 18.482 36.7731 17.761L35.0761 16.065L30.4431 20.698C30.0611 27.015 24.8181 32.02 18.4041 32.02C14.5111 32.02 11.0481 30.175 8.8431 27.312L17.3131 18.842L23.9521 25.48L28.0021 21.43L35.0761 14.356L36.4061 15.686L38.6491 17.929L39.2781 11.702L39.9061 5.47601L33.6801 6.10101Z" fill="#651FFF"/>
<path d="M6.34223 19.955C6.34223 17.778 6.91823 15.737 7.92723 13.974L2.71823 10.15C0.936226 12.991 -0.0927734 16.353 -0.0927734 19.955C-0.0927734 21.922 0.214227 23.817 0.783227 25.594L6.34223 20.022V19.955Z" fill="#651FFF"/>
</g>
<defs>
<clipPath id="clip0">
<rect width="40" height="40" fill="white"/>
</clipPath>
</defs>
</svg>
