<svg width="92" height="60" viewBox="0 0 92 60" fill="none" xmlns="http://www.w3.org/2000/svg">
<g clip-path="url(#clip0)">
<path fill-rule="evenodd" clip-rule="evenodd" d="M65.0753 40.6651L66.767 36.5219L68.5024 32.2691L70.3479 27.9724L72.2375 23.6319L74.1927 19.2693L75.1815 17.0992L76.1701 14.929L77.1808 12.7806L78.2132 10.6542L79.2458 8.5278L80.2784 6.42313L80.5859 5.7874L80.9157 5.12975L81.1791 4.60363L81.4649 4.09943L81.7725 3.61715L81.9483 3.37601L82.124 3.15679L82.4096 2.84989L82.7172 2.56491L82.8928 2.43338L83.0688 2.30184L83.2665 2.19224L83.4642 2.08263L84.189 1.86341L84.9142 1.62227L85.6173 1.33729L86.3423 1.07423L87.2431 0.723662L87.6823 0.570027L88.1438 0.416574L88.2537 0.372731L88.5393 0.263122L88.8467 0.175618L89.1545 0.131592H89.4838L89.7916 0.153514L90.077 0.219279L90.3628 0.306966L90.4945 0.372731L90.6045 0.438496L90.7142 0.526183L90.8022 0.61387L90.8901 0.701557L90.9778 0.789244L91.0217 0.920775L91.0878 1.03038L91.1316 1.16191L91.1537 1.29344L91.1098 1.77572L91.0657 2.258L90.9778 2.74028L90.8901 3.22256L90.6922 4.16519L90.4725 5.12975L90.3187 5.7874L89.8355 7.91399L89.4179 9.82119L89.0007 11.6845L88.1438 15.7839L84.4968 33.8255L80.7397 52.4372L80.3225 54.476L80.0587 55.813L79.6852 57.6983L79.4435 59.0793L79.3997 59.2111L79.3558 59.3205L79.3117 59.4301L79.224 59.5397L79.1579 59.6274L79.0702 59.6932L78.9602 59.7591L78.8725 59.8247L78.6747 59.9124L78.455 59.9564L78.2573 59.9781H78.0374L77.8179 59.9343L77.598 59.8685L77.3785 59.7808L77.2027 59.6493L77.027 59.4959L76.8732 59.2986L76.4336 58.7944L75.9724 58.2902L75.4889 57.8079L74.9838 57.3696L74.6103 57.0625L74.2366 56.7556L73.8411 56.4708L73.4239 56.2076L73.2479 56.0541L73.1161 55.8788L72.9845 55.6815L72.8745 55.4842L72.7868 55.2869L72.7207 55.0677L72.6987 54.8485L72.6767 54.6294V54.3223L72.7426 54.0154L72.7868 53.5333L72.8305 53.0509L72.9184 52.5686L72.9845 52.0425L73.1822 50.7491L74.2588 44.7206L75.7088 36.7411L77.0488 29.2877L77.5762 26.5256L77.8836 24.8376L78.8943 19.8173L79.3997 17.3184L79.927 14.8193L79.9051 14.8632L78.0594 18.7433L76.2359 22.6454L74.4784 26.5913L72.7426 30.5372L71.0509 34.5051L69.3814 38.4729L67.7774 42.4846L66.1957 46.4963L64.6357 50.5079L64.5039 50.8587L64.3501 51.2094L64.1084 51.9329L63.8449 52.6563L63.7129 53.0072L63.5591 53.3359L63.3394 53.7743L63.098 54.1908L62.9879 54.2787L62.8783 54.3662L62.7464 54.4319L62.6144 54.4977L62.3729 54.5635H62.1311L61.8894 54.5415L61.6697 54.4539L61.472 54.3442L61.2962 54.2127L61.1424 54.0373L61.0106 53.8181L60.747 53.4235L60.4614 53.0072L60.154 52.6345L59.8462 52.2617L59.6267 51.9986L59.3848 51.7575L59.1432 51.5385L58.8797 51.319L58.6159 51.0341L58.3742 50.7491L58.1547 50.4424L57.935 50.1134L57.759 49.7845L57.6054 49.4557L57.4516 49.105L57.3196 48.7542L57.1878 48.3158L57.078 47.8554L56.9901 47.3951L56.9242 46.9347L56.8804 46.4743L56.8584 45.9921V45.5317V45.0494L56.8365 44.0191V42.9888V41.9804L56.8584 40.9501L56.8804 39.9197L56.9463 38.8894L57.0562 36.8505L57.2098 34.7899L57.4077 32.7513L57.6054 30.6905L57.8032 28.652L58.0666 26.1529L58.3083 23.6536L58.5062 21.1547L58.5941 19.9052L58.6598 18.6557L58.7697 17.165L58.5501 17.7788L58.2644 18.7212L57.3857 21.4397L56.2651 25.0787L54.9249 29.3535L52.0031 38.7579L49.3006 47.5485L46.9939 55.024L46.8181 55.4623L46.6204 55.8788L46.4664 56.1857L46.2907 56.4708L46.0931 56.7337L45.8513 56.9968L45.7634 57.0845L45.6535 57.1722L45.5439 57.2379L45.4338 57.3037L45.1922 57.3916L44.9507 57.4352H44.5991L44.4234 57.4133L44.2694 57.3475L44.0937 57.2818L43.9399 57.2162L43.808 57.1064L43.6764 56.9968L43.5444 56.8435L43.4126 56.6681L43.3249 56.4708L43.2588 56.2735L43.2368 56.0322V55.813V55.5938L43.2588 55.3527L43.3249 54.9142L43.4126 54.4539L43.4787 54.1908L43.6323 53.7085L44.0279 52.4151L45.4558 47.8773L49.9379 33.6501L54.8592 18.0638L56.8365 11.8161L58.1327 7.67267L58.3742 6.9931L58.5941 6.31352L58.7918 5.67779L58.9017 5.37089L59.0335 5.08591L59.1212 4.84477L59.2532 4.60363L59.3629 4.38441L59.5166 4.16519L59.6704 3.9679L59.8464 3.7706L60.0441 3.57331L60.2636 3.39793L60.5934 3.20064L60.9667 3.00334L61.3182 2.82797L61.6919 2.67451L62.0652 2.54298L62.4389 2.38953L63.2076 2.12647L63.7788 1.92918L64.3501 1.70996L64.8993 1.46882L65.4486 1.20576L65.4927 1.18384L66.0637 0.98654L66.5471 0.855009L66.7889 0.789244L67.0306 0.745401L67.2723 0.723662L67.492 0.701557L67.7336 0.723662L67.9532 0.745401L68.1069 0.789244L68.2389 0.855009L68.3708 0.920775L68.5024 0.98654L68.5905 1.07423L68.6783 1.16191L68.7662 1.2496L68.8321 1.35921L68.92 1.57843L68.9859 1.84149L69.0299 2.12647V2.43338V2.71836L69.0077 3.00334V3.2664L68.964 4.12135L68.92 4.95438L68.8539 5.80932L68.7662 6.64235L68.5905 8.33051L68.3927 10.0185L68.1291 12.2326L67.8435 14.4467L67.5359 16.6388L67.2281 18.8529L66.9207 21.067L66.613 23.2811L66.3274 25.4733L66.0419 27.6874L65.8001 29.9015L65.6465 31.2386L65.5145 32.5979L65.4046 33.9351L65.3167 35.2723L65.2289 36.6315L65.163 37.9687L65.1192 39.3279L65.0753 40.6651Z" fill="#FF0000"/>
<path fill-rule="evenodd" clip-rule="evenodd" d="M16.5653 25.7363L17.8617 25.4732L21.135 24.8156L24.4086 24.1799L25.727 23.9168L26.6717 23.7634L27.0232 22.8425L27.4626 21.7246L28.5391 19.0721L29.7914 16.0469L31.1096 12.8463L33.5481 6.97111L34.4709 4.75702L35.0862 3.35403L35.24 3.0252L35.4156 2.7183L35.5474 2.58677L35.6574 2.43331L35.7893 2.3237L35.9209 2.19217L36.0747 2.08257L36.2506 1.99488L36.4264 1.90719L36.6239 1.84143L37.1514 1.73182L37.6787 1.57837L38.3376 1.38107L38.9969 1.13993L39.2825 1.03032L39.8757 0.811105L40.4907 0.591887L41.106 0.37267L41.3037 0.306904L41.6553 0.197296L42.0288 0.109609L42.2045 0.0657652L42.3581 0.0219217L42.5339 0H42.7096L42.8854 0.0219217L43.0392 0.0657652L43.215 0.13153L43.347 0.197296L43.4566 0.284983L43.5667 0.37267L43.6544 0.5042L43.7205 0.635731L43.7862 0.920713V1.22762V1.49068L43.7422 1.73182L43.6985 1.99488L43.6324 2.25794L43.2369 3.33211L42.7096 4.75702L42.0727 6.44499L41.3477 8.35237L39.7437 12.4517L38.1618 16.4853L36.6459 20.2997L35.8112 22.448L35.8552 22.4261L36.7779 22.3384L37.9863 22.2069L38.6014 22.1631L39.2164 22.1192H39.8317L40.0295 22.1411L40.2272 22.185L40.4469 22.2288L40.6446 22.2944L40.8204 22.3823L40.9742 22.4698L41.106 22.5796L41.2157 22.7111L41.3257 22.8646L41.4134 23.0399L41.4573 23.2372L41.4795 23.4345V23.6318L41.4354 23.8949L41.3697 24.136L41.2818 24.3772L41.15 24.5964L41.0619 24.7718L40.9522 24.9252L40.8204 25.0567L40.6884 25.1663L40.5568 25.2977L40.403 25.4075L40.0954 25.6048L39.7876 25.824L39.656 25.9336L39.5022 26.0651L39.2164 26.3282L38.9529 26.5913L38.7111 26.8982L38.4694 27.1831L38.1179 27.6216L37.7883 28.0819L37.459 28.5423L37.1075 28.9807L36.9537 29.1999L36.7999 29.3972L36.6239 29.5944L36.4264 29.7699L36.0529 30.0987L35.6355 30.4056L35.262 30.6468L34.8663 30.8441L34.4709 31.0414L34.0536 31.2167L33.6362 31.3702L33.2186 31.5017L32.7792 31.6112L32.3619 31.6988L32.2299 31.7209L32.0104 32.3128L31.6807 33.2553L30.6922 35.9955L27.9459 43.6904L23.0686 57.4132L22.7169 58.4214L22.6292 58.6845L22.4974 58.9916L22.4093 59.2547L22.2996 59.4299L22.1896 59.5837L22.0799 59.671L21.9701 59.7589L21.8381 59.8465L21.7064 59.9121L21.5746 59.9562L21.4426 59.9779L21.2888 60L21.1572 59.9779H21.0254L20.8934 59.9342L20.7615 59.8904L20.6519 59.8244L20.5418 59.7806L20.4541 59.6931L20.2784 59.5396L20.1464 59.4081L20.0365 59.2547L19.9269 59.1012L19.8168 58.9695L19.4433 58.5311L19.0479 58.1365L18.7183 57.8296L18.3888 57.5448L17.7079 56.9967L17.3564 56.6679L17.0048 56.3389L16.6971 55.9664L16.4116 55.5935L16.2798 55.3745L16.1918 55.1553L16.1698 55.0238L16.1259 54.8703V54.7169L16.1041 54.5851L16.1478 54.3002L16.2139 54.0371L16.3016 53.7521L16.3675 53.4673L16.3897 53.3796L16.4556 53.1823L16.6533 52.5464L17.3124 50.486L19.3556 44.304L21.5085 37.7931L22.3434 35.3161L22.6511 34.4173L22.8489 33.8254L16.9168 35.1188L13.5336 35.8422L11.6661 36.2586L11.2485 37.3985L10.4138 39.6345L8.06283 46.0578L4.6355 55.2866L4.45974 55.6812L4.26201 56.0541L4.06428 56.361L3.84476 56.646L3.58112 56.909L3.29551 57.1502L3.07581 57.2598L2.94381 57.3475L2.81199 57.435L2.6582 57.4788L2.50459 57.5227H2.17504L2.02106 57.5009L1.8453 57.4571L1.69151 57.3915L1.55969 57.3254L1.42805 57.2377L1.29605 57.1281L1.16423 56.9746L1.07653 56.7994L1.01044 56.6239L0.9665 56.4487L0.92256 56.2731V56.0758L0.900773 55.7033L0.94453 55.3526L0.98847 55.0455L1.05456 54.7607L1.14226 54.4757L1.23032 54.1688L1.99928 51.9766L2.90005 49.3899L4.9213 43.8216L6.63478 39.0865L7.46983 36.8287H7.44786L6.96433 36.741L6.50314 36.6095L6.28326 36.5218L6.06356 36.4339L5.84404 36.3245L5.62434 36.2149L5.27282 35.9738L4.94327 35.7105L4.67963 35.4696L4.4158 35.2284L4.19628 34.9654L3.97658 34.7023L3.537 34.1981L3.2296 33.8474L2.96578 33.5624L2.83396 33.4089L2.68035 33.2993L2.54853 33.1897L2.39456 33.102L2.19701 33.0143L1.97731 32.9266L1.75761 32.8609L1.53772 32.7732L1.33999 32.7072L1.14226 32.5978L0.94453 32.4882L0.76877 32.3346L0.549252 32.0717L0.351521 31.7865L0.263458 31.6988L0.197548 31.5675L0.13182 31.4579L0.0657271 31.3262L0.0437571 31.1948L0.021787 31.0414L0 30.9098L0.021787 30.7781L0.0437571 30.6468L0.0657271 30.5372L0.13182 30.4056L0.197548 30.296L0.263458 30.1864L0.373308 30.0987L0.483342 30.033L0.614979 29.9453L0.746799 29.9014L1.01044 29.7699L1.23032 29.682L1.47181 29.5944L2.76805 29.2219L4.04231 28.8492L4.59156 28.6957L6.23932 28.2573L7.88707 27.8189L9.5568 27.4024L11.2046 26.9858L11.2485 26.9639L11.622 26.0432L12.2373 24.4866L14.0169 19.9928L18.3011 9.31674L20.6299 3.5294V3.50748L20.6738 3.39787L20.8716 3.0252L21.0473 2.67445L21.2668 2.34563L21.4866 2.0168L21.6623 1.8195L21.8161 1.64413L21.9919 1.46876L22.1896 1.3153L22.3654 1.18377L22.5851 1.07417L22.7828 0.964557L23.0246 0.898792L23.2443 0.833026L23.4858 0.811105H23.7057L23.9254 0.854948L24.1231 0.920713L24.3209 1.03032L24.4966 1.18377L24.5624 1.27146L24.6504 1.35915L24.7163 1.55644L24.7821 1.73182L24.8042 1.92911L24.8262 2.12641V2.34563L24.7821 2.56484L24.7601 2.78406L24.6944 3.00328L24.6504 3.17865L24.4966 3.68285L24.2769 4.2309L22.7388 8.08931L20.1464 14.5781L17.466 21.33L16.3675 24.0483L15.6425 25.9336L16.5653 25.7363Z" fill="#FF0000"/>
<path fill-rule="evenodd" clip-rule="evenodd" d="M41.8751 43.9535L41.8531 43.7781L41.7872 43.6685L41.7215 43.5806L41.6555 43.4931L41.5677 43.4274L41.48 43.3397L41.3921 43.296L41.2822 43.2522L41.1724 43.2083L41.0624 43.1864H40.8646L40.6669 43.2083L40.4474 43.2962L40.2277 43.3837L39.986 43.5372L39.7443 43.6908L39.5468 43.8662L39.3271 44.0635L38.9756 44.3923L38.1846 41.893L38.6899 41.2354L39.2172 40.5996L39.4369 40.2927L39.8324 39.7666L40.1839 39.2186L40.3377 38.9334L40.4915 38.6484L40.6235 38.3634L40.7553 38.0565L40.843 37.8154L40.9089 37.5523L40.9529 37.3989L40.9748 37.136V36.8508L40.9529 36.588L40.9089 36.303L40.865 36.1057L40.7993 35.9084L40.7112 35.733L40.6013 35.5576L40.4913 35.4042L40.3815 35.2727L40.1398 35.0096L39.8322 34.7685L39.5246 34.5712L39.1949 34.4177L38.8434 34.3081L38.4699 34.2204L38.1184 34.1985H37.8549L37.5691 34.2204L37.3056 34.2862L37.042 34.3519L36.8 34.4393L36.5583 34.5489L36.3166 34.6585L36.0969 34.8119L35.9212 34.9435L35.7674 35.075L35.6136 35.2284L35.4818 35.3819L35.284 35.645L35.1083 35.9299L34.9545 36.2149L34.8445 36.5437L34.7568 36.8728L34.6908 37.2014L34.6689 37.5304L34.6908 37.8592L34.7348 38.1663L34.8225 38.6924L34.9545 39.2186L35.1083 39.7008L35.2401 40.1833L35.4159 40.775L34.6689 41.5642L33.9219 42.3753L33.3507 43.011L33.1092 43.2741L32.8895 43.5591L32.6918 43.8442L32.494 44.129L32.2963 44.4359L32.1205 44.7432L31.9667 45.0719L31.8349 45.3788L31.6809 45.8393L31.5711 46.2997L31.5272 46.5187L31.4834 46.7598L31.4614 47.2423L31.4834 47.7027L31.5052 47.9438L31.5272 48.1849L31.5931 48.4261L31.659 48.6451L31.7247 48.8641L31.8126 49.0835L31.9664 49.4122L32.1641 49.6973L32.3838 49.9602L32.5156 50.0919L32.6255 50.2237L32.8893 50.4427L33.1747 50.6182L33.4605 50.7934L33.7901 50.9251L34.1196 51.0127L34.4492 51.0786L34.7789 51.1224H35.1304L35.5257 51.0786L35.9212 50.9911L36.2509 50.8813L36.5805 50.7498L36.91 50.5963L37.2176 50.4209L37.5254 50.2237L37.811 50.0044L38.0966 49.7852L38.3824 49.566L38.5142 49.895L38.646 50.18L38.8218 50.465L38.8877 50.5748L38.9977 50.6844L39.0854 50.7721L39.1953 50.8596L39.3273 50.9474L39.4591 51.013L39.5909 51.0788H39.7229L39.8328 51.1007L39.9426 51.0788L40.0526 51.0569L40.1625 51.0349L40.2725 50.9913L40.3604 50.9255L40.4703 50.8598L40.5803 50.7501L40.668 50.6186L40.7339 50.465L40.7778 50.2896L40.7998 50.1581V50.0046L40.7778 49.8073L40.7559 49.61L40.69 49.4127L40.6462 49.2154L40.5362 48.8866L40.0955 47.7023L40.4688 47.2417L40.8205 46.7375L41.172 46.2333L41.4576 45.7728L41.6993 45.2905L41.765 45.0932L41.8309 44.874L41.8968 44.6548L41.9188 44.4356V44.2821V44.1068L41.8751 43.9535ZM36.778 46.3868L36.4045 46.6497L36.2945 46.7375L36.1627 46.8033L36.0528 46.847L35.9208 46.9127L35.789 46.9566L35.6572 46.9785H35.5034L35.3714 46.9566L35.2395 46.8687L35.1736 46.8249L35.1522 46.7595L35.0863 46.6278V46.4524V46.277L35.1302 46.1016L35.174 45.9482L35.2621 45.7728L35.3498 45.5974L35.4376 45.4221L35.5475 45.2467L35.6575 45.0713L35.899 44.7425L36.1407 44.4137L36.4483 44.0191L37.1515 46.1014L36.778 46.3868ZM38.0303 38.0785L37.8765 38.2538L37.2833 38.9115L37.1952 38.6705L37.1295 38.4294L37.1076 38.2759L37.0636 38.0348L37.0416 37.8375V37.6402V37.4212L37.0636 37.2239L37.1076 37.0922L37.1515 36.9387L37.2394 36.807L37.3273 36.6756L37.4591 36.588L37.5689 36.566L37.657 36.5441L37.7447 36.5224H37.8547L37.9424 36.5441L38.0303 36.566L38.118 36.6099L38.2061 36.6535L38.2718 36.7193L38.3157 36.7851L38.3597 36.8507L38.4036 36.9383L38.4256 37.1137L38.4036 37.2891L38.3816 37.4425L38.3157 37.596L38.25 37.7494L38.1621 37.8812L38.0303 38.0785Z" fill="#FF0000"/>
</g>
<defs>
<clipPath id="clip0">
<rect width="91.1538" height="60" fill="white"/>
</clipPath>
</defs>
</svg>
