<svg width="19" height="20" viewBox="0 0 19 20" fill="none" xmlns="http://www.w3.org/2000/svg">
<path d="M9.50498 19.26C7.80631 19.26 6.23764 18.844 4.79898 18.012C3.37764 17.1627 2.24231 16.0273 1.39298 14.606C0.560977 13.1673 0.144977 11.5987 0.144977 9.9C0.144977 8.20133 0.560977 6.64133 1.39298 5.22C2.24231 3.78133 3.37764 2.646 4.79898 1.814C6.23764 0.964666 7.80631 0.539999 9.50498 0.539999C11.2036 0.539999 12.7636 0.964666 14.185 1.814C15.6236 2.646 16.759 3.78133 17.591 5.22C18.4403 6.64133 18.865 8.20133 18.865 9.9C18.865 11.5987 18.4403 13.1673 17.591 14.606C16.759 16.0273 15.6236 17.1627 14.185 18.012C12.7636 18.844 11.2036 19.26 9.50498 19.26ZM9.50498 17.18C10.805 17.18 12.001 16.8507 13.093 16.192C14.185 15.5333 15.0516 14.6493 15.693 13.54C16.3343 12.4133 16.655 11.2 16.655 9.9C16.655 8.58267 16.3343 7.36933 15.693 6.26C15.0516 5.15067 14.185 4.26667 13.093 3.608C12.001 2.94933 10.805 2.62 9.50498 2.62C8.18764 2.62 6.98298 2.94933 5.89098 3.608C4.79898 4.24933 3.93231 5.13333 3.29098 6.26C2.66698 7.36933 2.35498 8.58267 2.35498 9.9C2.35498 11.2173 2.66698 12.4307 3.29098 13.54C3.93231 14.6493 4.79898 15.5333 5.89098 16.192C6.98298 16.8507 8.18764 17.18 9.50498 17.18ZM9.50498 14.892C8.18764 14.892 7.13031 14.5193 6.33298 13.774C5.55298 13.0287 5.13698 12.0493 5.08498 10.836L5.05898 9.874L5.08498 8.912C5.13698 7.69867 5.55298 6.71933 6.33298 5.974C7.13031 5.22867 8.18764 4.856 9.50498 4.856C10.4756 4.856 11.2903 5.012 11.949 5.324C12.625 5.636 13.1276 6.03467 13.457 6.52C13.8036 7.00533 13.9856 7.49933 14.003 8.002V8.054C14.003 8.21 13.9423 8.34 13.821 8.444C13.717 8.53067 13.587 8.574 13.431 8.574H11.715C11.5243 8.574 11.3856 8.53067 11.299 8.444C11.2123 8.34 11.1343 8.20133 11.065 8.028C10.9263 7.716 10.7356 7.49067 10.493 7.352C10.2503 7.196 9.92098 7.118 9.50498 7.118C8.51698 7.118 7.98831 7.742 7.91898 8.99L7.89298 9.874L7.91898 10.758C7.98831 12.006 8.51698 12.63 9.50498 12.63C9.92098 12.63 10.2503 12.5607 10.493 12.422C10.7356 12.266 10.9263 12.0233 11.065 11.694C11.1516 11.5207 11.2383 11.3907 11.325 11.304C11.4116 11.2173 11.5416 11.174 11.715 11.174H13.431C13.6043 11.174 13.743 11.226 13.847 11.33C13.9683 11.434 14.0203 11.5727 14.003 11.746C13.9856 12.2487 13.8036 12.7427 13.457 13.228C13.1276 13.696 12.625 14.0947 11.949 14.424C11.273 14.736 10.4583 14.892 9.50498 14.892Z" fill="black"/>
</svg>
