<svg width="31" height="25" viewBox="0 0 31 25" fill="none" xmlns="http://www.w3.org/2000/svg">
<g clip-path="url(#clip0)">
<path d="M30.769 6.56C29.634 4.743 27.087 1.537 26.71 0.946C26.204 0.15 25.929 0 25.24 0H5.75895C5.06995 0 4.79395 0.15 4.28795 0.945C3.91295 1.536 1.36495 4.742 0.229954 6.56C0.00695351 6.916 -0.0570465 7.348 0.0519535 7.752C0.399954 9.045 1.62195 10 3.07595 10C4.79995 10 6.20095 8.657 6.20095 7C6.20095 8.657 7.58795 10 9.30095 10C11.012 10 12.401 8.657 12.401 7C12.401 8.657 13.79 10 15.501 10C17.214 10 18.601 8.657 18.601 7C18.601 8.657 19.99 10 21.703 10C23.414 10 24.803 8.657 24.803 7C24.803 8.657 26.201 10 27.926 10C29.381 10 30.604 9.045 30.951 7.752C31.056 7.348 30.992 6.916 30.769 6.56ZM6.58295 6L8.49895 2H12.999L12.499 6H6.58295ZM18.499 6L17.999 2H22.499L24.415 6H18.499ZM8.99995 19C8.99995 19.553 8.55295 20 7.99995 20C7.44695 20 6.99995 19.553 6.99995 19C6.99995 18.447 7.44695 18 7.99995 18C8.55295 18 8.99995 18.447 8.99995 19ZM29.469 23H29V11.054C28.652 11.141 28.295 11.2 27.924 11.2C26.695 11.2 25.595 10.69 24.807 9.888C24.023 10.692 22.924 11.2 21.7 11.2C20.48 11.2 19.383 10.696 18.599 9.896C17.816 10.696 16.719 11.2 15.499 11.2C14.279 11.2 13.183 10.696 12.399 9.896C11.616 10.696 10.518 11.2 9.29795 11.2C8.07395 11.2 6.97495 10.692 6.19195 9.888C5.40495 10.69 4.30495 11.2 3.07595 11.2C2.70495 11.2 2.34695 11.14 1.99995 11.054V23H1.53095C1.23795 23 0.999954 23.238 0.999954 23.531V24.469C0.999954 24.762 1.23795 25 1.53095 25H3.99995H27H29.469C29.762 25 30 24.762 30 24.469V23.531C30 23.238 29.762 23 29.469 23ZM11 23H5.99995V14.531C5.99995 14.238 6.23795 14 6.53095 14H10.469C10.762 14 11 14.238 11 14.531V23ZM25 20.719C25 20.874 24.874 21 24.719 21H15.281C15.126 21 15 20.874 15 20.719V14.282C15 14.126 15.126 14 15.281 14H24.719C24.874 14 25 14.126 25 14.281V20.719Z" fill="#FDBF0F"/>
</g>
<defs>
<clipPath id="clip0">
<rect width="30.999" height="25" fill="white"/>
</clipPath>
</defs>
</svg>
