<svg width="5" height="40" viewBox="0 0 5 40" fill="none" xmlns="http://www.w3.org/2000/svg">
<path fill-rule="evenodd" clip-rule="evenodd" d="M5 0H4C1.79086 0 0 1.79086 0 4V5C1.10457 5 2 5.89543 2 7C2 8.10457 1.10457 9 0 9V12C1.10457 12 2 12.8954 2 14C2 15.1046 1.10457 16 0 16V18C1.10457 18 2 18.8954 2 20C2 21.1046 1.10457 22 0 22V25C1.10457 25 2 25.8954 2 27C2 28.1046 1.10457 29 0 29V32C1.10457 32 2 32.8954 2 34C2 35.1046 1.10457 36 0 36C0 38.2091 1.79086 40 4 40H5V0Z" fill="#FDBF0F"/>
</svg>
