<svg width="25" height="24" viewBox="0 0 25 24" fill="none" xmlns="http://www.w3.org/2000/svg">
<path d="M19.2619 16.2023L16.7166 15.9123C16.1053 15.8423 15.5041 16.0523 15.0732 16.4823L13.2293 18.3223C10.3934 16.8823 8.0686 14.5723 6.62559 11.7323L8.47945 9.88227C8.91035 9.45227 9.12079 8.85227 9.05064 8.24227L8.76004 5.72227C8.63979 4.71227 7.78801 3.95227 6.76588 3.95227H5.03227C3.89991 3.95227 2.95795 4.89227 3.0281 6.02227C3.5592 14.5623 10.4035 21.3823 18.9513 21.9123C20.0836 21.9823 21.0256 21.0423 21.0256 19.9123V18.1823C21.0356 17.1723 20.274 16.3223 19.2619 16.2023Z" fill="black"/>
</svg>
