<svg width="102" height="89" viewBox="0 0 102 89" fill="none" xmlns="http://www.w3.org/2000/svg">
<g clip-path="url(#clip0)">
<path d="M41.8989 47.099H33.3462V73.1441H41.8989V47.099Z" fill="black"/>
<path d="M28.5166 62.4457H19.9639V73.1441H28.5166V62.4457Z" fill="black"/>
<path d="M82.0361 62.4457H73.4834V73.1441H82.0361V62.4457Z" fill="black"/>
<path d="M68.6538 47.099H60.1011V73.1441H68.6538V47.099Z" fill="black"/>
<path d="M64.1478 77.818L61.9064 80.2662H40.0911L37.8497 77.818H0V83.18C0 86.3905 2.60355 89.0025 5.8038 89.0025H96.1988C99.399 89.0025 102.003 86.3905 102.003 83.18V77.818H64.1478ZM16.4118 84.6203H11.1639V81.3458H16.4093V84.6203H16.4118ZM25.4771 84.6203H20.2317V81.3458H25.4771V84.6203Z" fill="black"/>
<path d="M94.0594 73.1468V26.7051C94.0594 23.735 91.6522 21.3201 88.6917 21.3201H60.1011V30.2201H89.2272V73.1442H94.0594V73.1468Z" fill="black"/>
<path d="M13.3057 21.3201C10.3452 21.3201 7.93799 23.735 7.93799 26.7051V73.1442H12.7677V30.2201H41.8938V21.3201H13.3057Z" fill="black"/>
<path d="M55.2712 13.4817H60.1953L51 0L41.8047 13.4817H46.7287V73.1468H55.2712V13.4817Z" fill="black"/>
</g>
<defs>
<clipPath id="clip0">
<rect width="102" height="89" fill="white"/>
</clipPath>
</defs>
</svg>
