<svg width="29" height="30" viewBox="0 0 29 30" fill="none" xmlns="http://www.w3.org/2000/svg">
<path d="M18 3C18 4.658 16.209 6 14 6C12.904 6 11.914 5.669 11.191 5.135C10.596 5.66 9.728 6 8.75 6C7.931 6 7.191 5.76 6.619 5.375C6.256 5.752 5.668 6 5 6C3.894 6 3 5.328 3 4.5C3 3.672 3.894 3 5 3C5.195 3 5.379 3.027 5.557 3.066C5.824 1.893 7.148 1 8.75 1C9.435 1 10.07 1.165 10.595 1.444C11.297 0.581 12.553 0 14 0C16.209 0 18 1.342 18 3ZM7 10V8C7 7.447 6.553 7 6 7H2C1.447 7 1 7.447 1 8V10H7ZM29 28.625V29.375C29 29.721 28.721 30 28.375 30H0.625C0.279 30 0 29.721 0 29.375V28.625C0 28.279 0.279 28 0.625 28H1V11H7V16L13.455 11.07C13.557 10.992 13.695 10.978 13.811 11.035C13.927 11.093 14 11.211 14 11.34V16L20.455 11.07C20.557 10.992 20.695 10.978 20.811 11.035C20.927 11.093 21 11.211 21 11.34V16L27.455 11.07C27.557 10.992 27.695 10.978 27.811 11.035C27.927 11.093 28 11.211 28 11.34V16V28H28.375C28.721 28 29 28.279 29 28.625ZM12 24H9V26H12V24ZM12 20H9V22H12V20ZM18 24H15V26H18V24ZM18 20H15V22H18V20ZM24 24H21V26H24V24ZM24 20H21V22H24V20Z" fill="#FDBF0F"/>
</svg>
